<svg xmlns="http://www.w3.org/2000/svg" xmlns:xlink="http://www.w3.org/1999/xlink" xmlns:inkscape="http://www.inkscape.org/namespaces/inkscape" version="1.1" width="1920" height="1080" viewBox="0 0 1920 1080">
<defs>
<clipPath id="clip_1">
<path transform="matrix(1,0,0,-1,0,1080)" d="M197.808 0H1202.818V1080H197.808Z"/>
</clipPath>
<clipPath id="clip_2">
<path transform="matrix(1,0,0,-1,0,1080)" d="M17.274 457.209H1206.274V1080H17.274Z"/>
</clipPath>
<clipPath id="clip_3">
<path transform="matrix(1,0,0,-1,0,1080)" d="M0 1080H1920V0H0Z"/>
</clipPath>
<clipPath id="clip_4">
<path transform="matrix(1,0,0,-1,0,1080)" d="M-54.6489-72.1123H2031.2V1125.47H-54.6489Z"/>
</clipPath>
<clipPath id="clip_5">
<path transform="matrix(1,0,0,-1,0,1080)" d="M0 1080H1920V0H0Z"/>
</clipPath>
<clipPath id="clip_6">
<path transform="matrix(1,0,0,-1,0,1080)" d="M0 1080H1920V0H0Z"/>
</clipPath>
<clipPath id="clip_7">
<path transform="matrix(1,0,0,-1,0,1080)" d="M0 1080H1920V0H0Z"/>
</clipPath>
<clipPath id="clip_8">
<path transform="matrix(1,0,0,-1,0,1080)" d="M0 1080H1920V0H0Z"/>
</clipPath>
<clipPath id="clip_9">
<path transform="matrix(1,0,0,-1,0,1080)" d="M0 1080H1920V0H0Z"/>
</clipPath>
<clipPath id="clip_10">
<path transform="matrix(1,0,0,-1,0,1080)" d="M0 1080H1920V0H0Z"/>
</clipPath>
<clipPath id="clip_11">
<path transform="matrix(1,0,0,-1,0,1080)" d="M0 1080H1920V0H0Z"/>
</clipPath>
</defs>
<g>
<g inkscape:groupmode="layer" inkscape:label="Camada 1">
<g clip-path="url(#clip_1)">
</g>
<g clip-path="url(#clip_2)">
</g>
</g>
<g inkscape:groupmode="layer" inkscape:label="Camada 5">
<g clip-path="url(#clip_3)">
<g opacity=".779999">
<g clip-path="url(#clip_4)">
<path transform="matrix(1,0,0,-1,0,1080)" d="M2031.2-72.112H-54.64795V1125.4661H2031.2Z" fill="#ffffff"/>
</g>
</g>
</g>
</g>
<g inkscape:groupmode="layer" inkscape:label="Camada 3">
<g clip-path="url(#clip_5)">
</g>
</g>
<g inkscape:groupmode="layer" inkscape:label="Camada 2">
<g clip-path="url(#clip_6)">
</g>
</g>
<g inkscape:groupmode="layer" inkscape:label="Camada 4">
<g clip-path="url(#clip_7)">
</g>
<g clip-path="url(#clip_8)">
</g>
<g clip-path="url(#clip_9)">
</g>
</g>
<g inkscape:groupmode="layer" inkscape:label="TXT logo 2">
</g>
<g inkscape:groupmode="layer" inkscape:label="LOGO FINAL POR ENQTO">
<text fill="#2c5666" xml:space="preserve" transform="matrix(1 0 -0 1 0 1080)" font-size="83" font-family="PXXXKP+ZenOldMincho-Regular"><tspan y="-771.7446" x="320.0303">&#x590f;</tspan><tspan y="-672.14468" x="320.0303">&#x796d;</tspan><tspan y="-572.5447" x="320.0303 409.2553">&#x308a; </tspan></text>
<g clip-path="url(#clip_10)">
<path transform="matrix(1,0,0,-1,1051.4121,281.50538)" d="M0 0C1.092 1.274 8.19 9.373 10.374 12.649 12.013 15.106 13.924 18.837 13.924 22.387 13.924 27.847 10.011 31.578 4.914 31.578 3.584 31.578 2.37 31.399 1.33 30.944-1.549 29.682-2.667 26.115-2.667 18.666-6.916 19.354-18.817 22.082-18.817 22.082-16.544 34.608-7.645 41.771 4.368 41.771 18.474 41.771 25.754 32.124 25.754 22.478 25.754 13.104 19.475 6.37 14.743 1.274L4.277-10.102H23.089 26.209V-20.294H-17.837Z" fill="#2c5666"/>
<path transform="matrix(1,0,0,-1,1046.1338,341.4043)" d="M0 0C0-15.834 6.462-21.568 11.648-21.568 16.836-21.568 23.297-15.834 23.297 0 23.297 15.744 16.745 21.477 11.648 21.477 6.553 21.477 0 15.744 0 0M-11.83 0C-11.83 20.84-.455 31.669 11.648 31.669 23.752 31.669 35.128 20.84 35.128-.091 35.128-20.931 23.752-31.76 11.648-31.76-.455-31.76-11.83-20.931-11.83 0" fill="#2c5666"/>
<path transform="matrix(1,0,0,-1,1077.2525,427.90809)" d="M0 0 7.806-10.172C9.073-11.823 7.855-14.205 5.775-14.144L-2.841-13.892H-43.677L-25.84 6.402C-24.749 7.676-17.65 15.775-15.466 19.052-13.828 21.509-11.917 25.24-11.917 28.789-11.917 34.249-15.83 37.98-20.926 37.98-27.115 37.98-30.39 33.066-30.573 27.879H-42.767C-42.221 40.256-33.485 48.173-21.472 48.173-7.367 48.173-.086 38.526-.086 28.88-.086 19.507-6.366 12.772-11.097 7.676L-21.563-3.699H-7.822L-3.548 .557C-2.45 1.651-.943 1.229 0 0" fill="#2c5666"/>
<path transform="matrix(1,0,0,-1,1065.6084,500.60639)" d="M0 0C1.456 1.456 3.276 4.004 3.276 8.009 3.276 11.648 2.002 14.379-.091 16.381-2.365 18.564-4.914 19.293-7.917 19.293-11.466 19.293-13.832 18.109-15.834 16.017-18.019 13.741-19.11 11.467-19.11 8.1-19.11 4.732-18.019 2.002-15.743-.091-14.196-1.547-11.557-3.094-7.917-3.094-4.095-3.094-1.547-1.547 0 0M4.096 46.503-10.647 27.301C-8.827 28.12-6.643 28.757-4.004 28.757 .455 28.757 5.824 27.028 9.374 23.57 12.559 20.566 15.107 15.38 15.107 9.01 15.107 3.913 13.65-1.183 9.556-5.643 4.368-11.284-1.547-12.559-7.735-12.559-14.196-12.559-20.021-11.375-25.025-6.37-28.302-3.094-30.94 1.547-30.94 8.372-30.94 15.744-27.573 21.659-23.297 27.301L-5.46 51.144Z" fill="#2c5666"/>
</g>
<text fill="#2c5666" xml:space="preserve" transform="matrix(1 0 -0 1 0 1080)" font-size="114" font-family="FuturaPT-Demi"><tspan y="-568.2275" x="439.8784 554.5624 642.7984 705.4984 781.8784 875.8144 956.7544">MATSURI</tspan></text>
<g clip-path="url(#clip_11)">
<path transform="matrix(1,0,0,-1,440.8008,373.6772)" d="M0 0V134.83L100.88 29.1V94.449C100.88 95.304 100.784 96.157 100.593 96.991L95.678 118.46C95.555 118.996 95.387 119.52 95.175 120.028L91.746 128.225C90.962 130.101 92.364 132.164 94.396 132.126L112.453 131.788C113.998 131.759 115.236 130.498 115.236 128.952V-5.82L14.356 99.91V18.065C14.356 17.298 14.424 16.533 14.559 15.778L16.899 2.668C17.148 1.277 16.078 0 14.665 0Z" fill="#2c5666"/>
<path transform="matrix(1,0,0,-1,657.1094,323.625)" d="M0 0-18.88 45.009C-19.945 47.547-22.558 47.039-23.639 44.507L-43.844 0ZM5.626-13.58H-49.47L-64.99-50.052H-80.898L-21.34 85.554 36.073-48.667C36.354-49.323 35.873-50.052 35.159-50.052H19.726C17.856-50.052 16.33-48.558 16.29-46.688L16.142-39.692C16.13-39.159 16.02-38.632 15.815-38.139Z" fill="#2c5666"/>
<path transform="matrix(1,0,0,-1,741.9401,257.8589)" d="M0 0-4.777-112.811C-4.848-114.492-6.232-115.818-7.914-115.818H-19.26L-20.342 0H-50.688V13.58H26.524V0Z" fill="#2c5666"/>
<path transform="matrix(1,0,0,-1,842.3789,269.8872)" d="M0 0C-1.746 3.492-4.656 7.372-7.566 9.7-10.088 11.64-14.744 14.162-22.116 14.162-34.92 14.162-43.844 6.208-43.844-5.82-43.844-10.864-42.486-13.774-38.994-17.072-35.114-20.952-29.764-24.346-24.914-26.479L-13.377-31.474C-5.811-34.773 1.94-38.654 7.371-44.086 13.967-50.682 17.135-57.15 17.135-66.462 17.135-90.324-1.358-106.118-24.638-106.118-33.174-106.118-45.543-105.094-54.467-96.364-60.869-90.156-66.875-82.735-69.52-75.412-69.52-75.412-54.06-69.92-50.039-68.594-48.392-74.341-44.794-83.254-41.108-87.134-35.482-92.76-30.348-93.719-23.751-93.719-6.098-93.719 1.552-79.928 1.552-66.93 1.552-61.11-.194-56.066-4.85-51.798-8.536-48.306-13.58-45.978-20.37-42.874L-32.01-37.442C-37.054-35.114-43.456-32.398-49.276-26.772-54.902-21.34-58.2-15.326-58.2-5.626-58.2 14.356-41.243 27.733-20.291 27.733-12.337 27.733-5.037 27.109 1.472 23.651 5.971 21.261 11.938 16.516 15.304 12.26 16.552 10.682 16.184 8.374 14.506 7.265Z" fill="#2c5666"/>
<path transform="matrix(1,0,0,-1,901.3525,323.625)" d="M0 0C0-10.864 0-22.698 10.282-31.428 15.52-35.89 24.444-38.8 31.622-38.8 38.8-38.8 47.724-35.89 52.962-31.428 63.244-22.698 63.244-10.864 63.244 0V79.346H77.601V-3.88C77.601-14.744 76.437-25.22 69.452-34.92 61.692-45.59 48.112-52.38 31.622-52.38 15.132-52.38 2.552-45.59-5.208-34.92-12.192-25.22-13.356-14.744-13.356-3.88V56.844L-16.321 64.249C-16.995 65.931-16.614 67.852-15.35 69.15L-2.911 81.926C-1.849 83.016 0 82.264 0 80.743Z" fill="#2c5666"/>
<path transform="matrix(1,0,0,-1,107.105,110.08978)" d="M0 0C-1.203-4.091-8.974-39.425-7.217-72.957-3.82-137.767 43.166-185.288 104.536-185.288 143.555-185.288 177.347-166.135 198.366-133.263 185.084-111.09 187.773-109.244 188.223-108.402 188.909-107.116 188.464-104.438 211.031-109.68 215.069-98.363 216.369-83.61 216.369-68.89 216.369-6.756 167.075 40.199 104.427 40.707 104.13 40.709 103.827 40.711 103.531 40.711 50.306 40.711 4.265 3.642 0 0" fill="#87a91c"/>
<path transform="matrix(1,0,0,-1,107.105,110.08978)" d="M0 0C-1.203-4.091-8.974-39.425-7.217-72.957-3.82-137.767 43.166-185.288 104.536-185.288 143.555-185.288 177.347-166.135 198.366-133.263 185.084-111.09 187.773-109.244 188.223-108.402 188.909-107.116 188.464-104.438 211.031-109.68 215.069-98.363 216.369-83.61 216.369-68.89 216.369-6.756 167.075 40.199 104.427 40.707 104.13 40.709 103.827 40.711 103.531 40.711 50.306 40.711 4.265 3.642 0 0M104.536-188.288C73.764-188.288 44.921-176.144 23.321-154.091 2.15-132.479-10.417-103.24-12.067-71.762-13.959-35.646-2.858 .925-2.746 1.29L-2.622 1.692-2.306 1.972C-1.818 2.404 46.876 44.926 103.63 44.926 103.937 44.926 104.241 44.924 104.548 44.922 135.746 44.669 165.023 32.472 186.985 10.578 209.011-11.379 221.141-40.594 221.141-71.683 221.141-87.298 218.785-101.832 214.329-113.713L213.869-114.939 211.617-114.423C198.618-111.398 193.441-110.572 191.384-110.405 192.837-113.919 198.217-123.514 203.354-132.067L203.829-132.857 203.338-133.637C181.835-167.858 144.9-188.288 104.536-188.288" fill="#2c5666"/>
<path transform="matrix(1,0,0,-1,181.4964,153.85688)" d="M0 0-26.199 28.32 2.121 2.121C3.592 .701 1.427-1.475 0 0" fill="#ffffff"/>
<path transform="matrix(1,0,0,-1,213.032,222.74793)" d="M0 0-1.5-38.551-3 0C-3.035 2.044 .034 2.052 0 0" fill="#ffffff"/>
<path transform="matrix(1,0,0,-1,210.032,140.79438)" d="M0 0 1.5 38.551 3 0C3.035-2.044-.034-2.052 0 0" fill="#ffffff"/>
<path transform="matrix(1,0,0,-1,252.5087,180.27118)" d="M0 0 38.551-1.5 0-3C-2.044-3.035-2.052 .034 0 0" fill="#ffffff"/>
<path transform="matrix(1,0,0,-1,170.5552,183.27112)" d="M0 0-38.551 1.5 0 3C2.044 3.035 2.052-.034 0 0" fill="#ffffff"/>
<path transform="matrix(1,0,0,-1,241.5676,209.68543)" d="M0 0 26.199-28.32-2.121-2.121C-3.592-.701-1.427 1.475 0 0" fill="#ffffff"/>
<path transform="matrix(1,0,0,-1,239.4462,151.7356)" d="M0 0 28.32 26.199 2.121-2.121C.701-3.592-1.475-1.427 0 0" fill="#ffffff"/>
<path transform="matrix(1,0,0,-1,183.6177,211.80683)" d="M0 0-28.32-26.199-2.121 2.121C-.701 3.592 1.475 1.427 0 0" fill="#ffffff"/>
<path transform="matrix(1,0,0,-1,140.9728,432.93153)" d="M0 0C3.616-1.623 17.816-1.945 25.471-1.394 53.354 .607 74.413 21.289 74.413 48.073 74.413 60.961 70.692 70.854 61.831 80.137 53.284 71.966 35.203 57.754 31.426 57.754 30.913 57.754 30.212 57.856 30.077 58.374 29.082 62.216 27.602 78.985 29.517 95.865 27.462 96.121 25.377 96.25 23.297 96.25 9.896 96.25-.989 92.323-10.363 82.761-19.559 73.38-23.351 58.461-23.094 45.515-22.579 19.635-2.858 2.501 0 0" fill="#87a91c"/>
<path transform="matrix(1,0,0,-1,140.9728,432.93153)" d="M0 0C3.616-1.623 17.816-1.945 25.471-1.394 53.354 .607 74.413 21.289 74.413 48.073 74.413 60.961 70.692 70.854 61.831 80.137 53.284 71.966 35.203 57.754 31.426 57.754 30.913 57.754 30.212 57.856 30.077 58.374 29.082 62.216 27.602 78.985 29.517 95.865 27.462 96.121 25.377 96.25 23.297 96.25 9.896 96.25-.989 92.323-10.363 82.761-19.559 73.38-23.351 58.461-23.094 45.515-22.579 19.635-2.858 2.501 0 0M24.071-4.662C14.748-4.662 .186-2.675-.503-2.58L-.925-2.522-1.254-2.25C-2.291-1.393-26.648 19.066-27.224 48.077-27.498 61.836-22.27 74.9-12.505 84.861-2.57 94.995 11.273 100.807 25.475 100.807 28.191 100.807 30.918 100.599 33.581 100.187L35.007 99.967 34.842 98.534C33.033 82.823 31.668 65.509 32.227 61.084 36.103 63.188 49.075 74.668 60.445 85.588L61.499 86.6 62.539 85.572C72.622 75.596 78.176 62.29 78.176 48.107 78.176 34.238 72.889 21.273 63.29 11.599 53.936 2.173 41.144-3.567 27.269-4.562 26.309-4.631 25.23-4.662 24.071-4.662" fill="#2c5666"/>
<path transform="matrix(1,0,0,-1,150.7721,380.2284)" d="M0 0-15.758 11.838 1.614 2.529C3.46 1.474 1.738-1.232 0 0" fill="#ffffff"/>
<path transform="matrix(1,0,0,-1,174.5855,402.7146)" d="M0 0 3.121-19.46-2.917-.699C-3.498 1.353-.415 2.096 0 0" fill="#ffffff"/>
<path transform="matrix(1,0,0,-1,154.7029,398.19563)" d="M0 0-16.408-10.919-1.847 2.364C-.238 3.753 1.74 1.229 0 0" fill="#ffffff"/>
<path transform="matrix(1,0,0,-1,185.8554,385.9272)" d="M0 0 19.341-3.789-.351-2.979C-2.477-2.816-2.11 .334 0 0" fill="#ffffff"/>
<path transform="matrix(1,0,0,-1,388.2203,110.637027)" d="M0 0C-5.827 5.065-14.417 9.368-25.036 9.738-25.036 9.738-26.03-3.772-16.202-15.234L-17.684-21.483C-25.754-21.774-34.455-24.609-42.662-32.264-42.662-32.264-34.539-43.024-18.499-43.598L-15.089-49.103C-19.111-54.942-22.936-63.972-25.036-74.817-25.036-74.817-10.788-72.726 .577-64.252L6.19-66.17C7.25-73.518 10.438-82.151 17.127-92.053 17.127-92.053 25.979-80.747 27.66-66.053L33.264-63.991C39.127-68.094 48.114-72.294 59.129-74.427 59.129-74.427 57.049-59.863 48.322-48.417L51.226-43.087C58.411-41.922 66.795-38.728 76.365-32.264 76.365-32.264 65.162-23.492 50.566-21.754L49.517-15.895C54.564-10.072 58.76-1.247 59.129 9.348 59.129 9.348 45.471 10.734 33.915 .565L27.872 2.779C27.429 10.628 24.534 19.032 17.127 26.974 17.127 26.974 6.532 18.976 5.808 3.18" fill="#a24a54"/>
<path transform="matrix(1,0,0,-1,388.2203,110.637027)" stroke-width="1" stroke-linecap="round" stroke-linejoin="round" fill="none" stroke="#a24a54" d="M0 0C-5.827 5.065-14.417 9.368-25.036 9.738-25.036 9.738-26.03-3.772-16.202-15.234L-17.684-21.483C-25.754-21.774-34.455-24.609-42.662-32.264-42.662-32.264-34.539-43.024-18.499-43.598L-15.089-49.103C-19.111-54.942-22.936-63.972-25.036-74.817-25.036-74.817-10.788-72.726 .577-64.252L6.19-66.17C7.25-73.518 10.438-82.151 17.127-92.053 17.127-92.053 25.979-80.747 27.66-66.053L33.264-63.991C39.127-68.094 48.114-72.294 59.129-74.427 59.129-74.427 57.049-59.863 48.322-48.417L51.226-43.087C58.411-41.922 66.795-38.728 76.365-32.264 76.365-32.264 65.162-23.492 50.566-21.754L49.517-15.895C54.564-10.072 58.76-1.247 59.129 9.348 59.129 9.348 45.471 10.734 33.915 .565L27.872 2.779C27.429 10.628 24.534 19.032 17.127 26.974 17.127 26.974 6.532 18.976 5.808 3.18"/>
<path transform="matrix(1,0,0,-1,415.5597,151.4497)" d="M0 0C9.747-11.769 4.988-28.547 4.988-28.547-7.49-20.214-11.296-11.535-11.911-4.811L-10.414-11.154C-14.84-21.734-25.834-28.542-25.834-28.542-27.854-18.402-26.267-9.684-24.031-4.399L-19.886-1.156C-34.401-14.343-47.766-6.4-47.766-6.4-42.286 5.479-32.226 8.774-24.166 9.302L-29.446 8.549C-43.509 11.989-47.476 24.421-47.476 24.421-38.236 27.827-29.133 25.461-23.332 22.056L-20.274 18.173C-33.405 32.672-25.478 46.01-25.478 46.01-13.565 40.513-10.285 30.411-9.772 22.339L-10.488 27.502C-7.129 41.786 5.343 45.72 5.343 45.72 8.615 36.843 7.018 28.265 3.869 22.554L-1.711 19.116C10.055 28.813 26.79 24.067 26.79 24.067 18.457 11.588 9.778 7.782 3.055 7.168L9.795 8.392C20.463 3.999 26.786-6.755 26.786-6.755 17.003-8.704 9.109-7.741 3.869-5.67" fill="#c88b94"/>
<path transform="matrix(1,0,0,-1,415.5597,151.4497)" stroke-width="1" stroke-linecap="round" stroke-linejoin="round" fill="none" stroke="#a24a54" d="M0 0C9.747-11.769 4.988-28.547 4.988-28.547-7.49-20.214-11.296-11.535-11.911-4.811L-10.414-11.154C-14.84-21.734-25.834-28.542-25.834-28.542-27.854-18.402-26.267-9.684-24.031-4.399L-19.886-1.156C-34.401-14.343-47.766-6.4-47.766-6.4-42.286 5.479-32.226 8.774-24.166 9.302L-29.446 8.549C-43.509 11.989-47.476 24.421-47.476 24.421-38.236 27.827-29.133 25.461-23.332 22.056L-20.274 18.173C-33.405 32.672-25.478 46.01-25.478 46.01-13.565 40.513-10.285 30.411-9.772 22.339L-10.488 27.502C-7.129 41.786 5.343 45.72 5.343 45.72 8.615 36.843 7.018 28.265 3.869 22.554L-1.711 19.116C10.055 28.813 26.79 24.067 26.79 24.067 18.457 11.588 9.778 7.782 3.055 7.168L9.795 8.392C20.463 3.999 26.786-6.755 26.786-6.755 17.003-8.704 9.109-7.741 3.869-5.67"/>
<path transform="matrix(1,0,0,-1,418.6142,142.71833)" d="M0 0C0-7.479-6.063-13.543-13.543-13.543-21.022-13.543-27.085-7.479-27.085 0-27.085 7.479-21.022 13.543-13.543 13.543-6.063 13.543 0 7.479 0 0" fill="#fcee21"/>
<path transform="matrix(1,0,0,-1,418.6142,142.71833)" stroke-width="1" stroke-linecap="round" stroke-linejoin="round" fill="none" stroke="#a24a54" d="M0 0C0-7.479-6.063-13.543-13.543-13.543-21.022-13.543-27.085-7.479-27.085 0-27.085 7.479-21.022 13.543-13.543 13.543-6.063 13.543 0 7.479 0 0Z"/>
<path transform="matrix(1,0,0,-1,370.0764,155.6322)" d="M0 0C-.185-.315-.365-.635-.54-.962-.777-1.402-.566-1.948-.101-2.131 .481-2.361 1.202-2.612 2.041-2.839 2.228-2.665 2.473-2.571 2.74-2.571 3.08-2.577 3.394-2.755 3.573-3.045L3.618-3.117C4.003-3.739 3.978-4.522 3.57-5.129-.247-10.8-4.11-18.943-6.123-27.536-6.263-28.134-5.724-28.676-5.125-28.54-.384-27.464 10.003-24.51 18.124-18.455 18.21-18.391 18.304-18.342 18.403-18.309 18.441-18.287 18.48-18.268 18.522-18.251 18.926-18.083 19.391-18.197 19.671-18.533L19.841-18.736C20.098-19.043 20.144-19.469 19.971-19.82 20.023-20.315 20.083-20.811 20.151-21.307 20.237-21.936 20.533-22.815 21.479-21.853 21.887-21.437 22.459-21.097 23.01-20.644 23.149-20.32 23.453-20.085 23.817-20.043L24.015-20.021C24.325-19.983 24.629-20.098 24.841-20.312 25.099-20.464 25.28-20.727 25.323-21.031 26.382-28.367 29.822-36.786 34.951-44.897 35.28-45.416 36.046-45.418 36.37-44.895 38.891-40.838 43.609-31.443 44.81-20.944 44.839-20.693 44.961-20.467 45.144-20.306 45.28-20.158 45.459-20.05 45.663-20.005L46.005-19.927C46.52-19.811 47.035-20.115 47.184-20.62 47.198-20.67 47.209-20.719 47.216-20.769 47.714-21.162 48.228-21.554 48.755-21.941 49.255-22.309 49.971-22.018 50.074-21.406 50.165-20.86 50.257-20.242 50.339-19.566 50.311-19.517 50.287-19.466 50.268-19.413 50.137-19.054 50.224-18.669 50.462-18.403 50.467-18.344 50.472-18.285 50.478-18.226 50.526-17.676 51.008-17.263 51.561-17.317 52.028-17.357 52.391-17.712 52.462-18.155 52.588-18.364 52.695-18.541 52.821-18.751 58.812-22.762 67.275-26.786 75.478-28.757 76.082-28.902 76.626-28.355 76.482-27.751 75.347-23.006 72.044-12.606 65.999-4.465 65.566-3.882 65.498-3.108 65.846-2.47L65.72-2.701C65.956-2.269 66.368-2.38 67.041-2.309 67.236-2.288 67.41-2.162 67.525-2.308 68.108-2.241 68.695-2.164 69.286-2.076 69.906-1.985 70.204-1.262 69.833-.756 69.607-.448 69.357-.117 69.085 .232 68.961 .222 68.7 .461 68.629 .573 68.335 1.044 68.018 1.033 68.005 1.332L68.07 1.959C68.112 2.36 68.389 2.697 68.776 2.813 68.866 2.841 68.959 2.855 69.051 2.856 69.102 2.873 69.156 2.887 69.21 2.896 76.33 4.049 84.639 7.1 92.498 12.031 93.018 12.357 93.022 13.12 92.504 13.448 88.535 15.959 79.39 20.808 69.215 22.169 68.41 22.277 67.759 22.875 67.616 23.675 67.554 24.021 67.679 24.373 67.944 24.604 68.061 24.706 68.197 24.778 68.342 24.817 68.533 24.868 68.687 25.005 68.81 25.161 69.158 25.606 69.505 26.063 69.85 26.531 70.217 27.032 69.927 27.749 69.314 27.852 68.969 27.91 68.595 27.968 68.197 28.023 67.919 27.865 67.581 27.846 67.289 27.977 66.987 28.113 66.772 28.389 66.714 28.715L66.676 28.924C66.623 29.222 66.707 29.527 66.905 29.756 72.151 35.807 75.978 44.466 76.703 52.983 76.745 53.48 76.338 53.9 75.839 53.885 71.714 53.768 61.331 52.387 52.719 44.809 52.45 44.573 52.075 44.498 51.739 44.613 51.401 44.727 51.149 45.013 51.078 45.363L51.048 45.514C50.897 46.241 50.715 46.97 50.503 47.694 50.359 48.186 49.802 48.423 49.339 48.201 48.77 47.928 48.093 47.574 47.35 47.127 47.18 46.817 46.853 46.611 46.483 46.607L46.233 46.605C45.959 46.599 45.68 46.722 45.493 46.922 45.217 47.091 45.036 47.387 45.017 47.718 44.557 55.86 41.531 64.616 35.858 71.296 35.537 71.673 34.958 71.685 34.614 71.328 31.801 68.404 25.489 59.871 24.951 48.129 24.949 48.087 24.945 48.045 24.937 48.003L24.912 47.857C24.854 47.526 24.634 47.245 24.324 47.111 24.015 46.977 23.66 47.007 23.378 47.192 22.705 47.634 21.997 48.054 21.261 48.45 20.82 48.687 20.274 48.473 20.09 48.007 19.783 47.228 19.438 46.201 19.162 44.976L19.121 44.785C19.047 44.439 18.796 44.158 18.46 44.046 18.124 43.933 17.755 44.009 17.488 44.24 13.827 47.423 6.184 52.703-4.993 53.621-5.492 53.662-5.916 53.254-5.898 52.754-5.754 48.75-4.621 39.139 2.458 30.698 2.706 30.608 2.917 30.42 3.031 30.166 3.221 29.741 3.093 29.242 2.722 28.96L2.057 29.043C1.802 28.849 1.477 28.792 1.178 28.878 .731 28.778 .286 28.665-.156 28.541-.679 28.393-.918 27.78-.638 27.314-.154 26.509 .546 25.481 1.189 24.479 1.365 24.205 1.396 23.863 1.273 23.561L1.094 23.123C.947 22.762 .602 22.519 .212 22.502-8.118 22.138-17.036 19.103-23.844 13.319-24.222 12.998-24.234 12.418-23.877 12.075-20.973 9.282-12.537 3.04-.927 2.423-.798 2.417-.672 2.454-.55 2.497-.364 2.563-.159 2.573 .042 2.52 .461 2.408 .76 2.038 .781 1.605L.802 1.191M35.271-48.058C35.259-48.058 35.247-48.058 35.236-48.057 34.916-48.046 34.621-47.882 34.442-47.617 28.957-39.498 25.396-31.595 23.832-24.081 23.706-23.476 23.005-23.209 22.511-23.58 21.133-24.615 20.231-25.176 20.176-25.21 19.898-25.383 19.552-25.408 19.251-25.277 18.95-25.147 18.733-24.877 18.669-24.555 18.518-23.796 18.384-23.031 18.268-22.264 18.176-21.655 17.498-21.354 16.983-21.693 6.056-28.864-6.195-30.73-6.747-30.811-7.068-30.859-7.392-30.746-7.615-30.512-7.839-30.278-7.936-29.949-7.874-29.631-6.122-20.588-2.984-12.015 .861-5.665 1.141-5.203 .918-4.605 .404-4.438-1.574-3.794-2.733-3.113-2.794-3.076-3.234-2.815-3.406-2.263-3.191-1.798-3.006-1.397-2.813-1.001-2.615-.612-2.344-.081-2.68 .544-3.272 .611-17.692 2.241-25.459 11.361-25.782 11.789-26.09 12.197-26.041 12.773-25.666 13.123-18.92 19.415-10.79 23.397-2.387 24.309-1.796 24.374-1.457 25.003-1.732 25.53-2.572 27.144-2.926 28.236-2.946 28.299-3.109 28.809-2.842 29.356-2.34 29.542-1.894 29.706-1.444 29.859-.989 30.001-.43 30.174-.213 30.832-.559 31.303-8.695 42.381-7.929 54.273-7.889 54.806-7.85 55.342-7.396 55.746-6.858 55.732 4.049 55.353 11.996 50.972 16.638 47.494 17.09 47.155 17.734 47.372 17.919 47.906 18.52 49.639 19.111 50.645 19.145 50.703 19.406 51.144 19.959 51.315 20.424 51.1 20.945 50.86 21.455 50.608 21.955 50.345 22.483 50.068 23.111 50.398 23.182 50.99 24.899 65.236 33.907 72.783 34.328 73.101 34.738 73.409 35.314 73.359 35.662 72.985 41.808 66.396 45.767 58.592 46.782 50.416 46.854 49.835 47.471 49.504 47.993 49.769 49.476 50.52 50.466 50.837 50.525 50.856 51.035 51.019 51.579 50.749 51.764 50.248 51.969 49.691 52.159 49.128 52.331 48.561 52.503 47.996 53.167 47.778 53.64 48.131 64.817 56.496 76.833 55.392 77.373 55.338 77.897 55.285 78.29 54.835 78.272 54.308 77.976 45.82 75.132 37.464 70.376 30.915 70.014 30.417 70.28 29.718 70.884 29.597 71.909 29.39 72.505 29.223 72.547 29.211 72.854 29.124 73.102 28.894 73.212 28.594 73.323 28.294 73.283 27.959 73.105 27.693 72.509 26.802 71.901 25.937 71.284 25.107 70.91 24.603 71.192 23.895 71.809 23.781 85.013 21.339 94.691 13.859 95.125 13.519 95.377 13.322 95.519 13.016 95.508 12.696 95.497 12.377 95.333 12.081 95.068 11.903 87.178 6.573 79.488 3.057 72.167 1.429 71.575 1.297 71.313 .615 71.668 .123 72.602-1.172 73.1-2.014 73.131-2.066 73.295-2.345 73.314-2.687 73.181-2.982 73.049-3.277 72.781-3.49 72.464-3.554 71.517-3.742 70.57-3.907 69.63-4.047 69.017-4.139 68.714-4.826 69.057-5.342 76.342-16.332 78.182-28.729 78.262-29.291 78.308-29.61 78.196-29.933 77.962-30.156 77.728-30.379 77.399-30.475 77.082-30.414 65.947-28.257 57.964-24.309 53.258-21.406 52.754-21.095 52.106-21.402 52.005-21.986 51.724-23.602 51.452-24.574 51.433-24.637 51.346-24.945 51.117-25.193 50.817-25.303 50.516-25.411 50.182-25.373 49.916-25.196 49.144-24.68 48.392-24.155 47.664-23.622 47.166-23.256 46.465-23.556 46.355-24.165 43.953-37.465 36.401-47.236 36.058-47.674 35.868-47.917 35.577-48.058 35.271-48.058" fill="#2c5666"/>
</g>
</g>
</g>
</svg>
